<svg width="24" height="24" viewBox="0 0 24 24" fill="none" xmlns="http://www.w3.org/2000/svg">
<path d="M11.993 3.50903C11.632 3.50903 11.268 3.58203 10.927 3.72603L3.483 6.85303C3.063 7.02903 3.074 7.62103 3.493 7.79703L10.978 10.809C11.633 11.079 12.367 11.079 13.023 10.809L20.508 7.79703C20.927 7.63103 20.927 7.02903 20.518 6.85303L13.053 3.72603C12.7179 3.58292 12.3574 3.5091 11.993 3.50903ZM21.5 8.66303C21.4365 8.66383 21.3737 8.67673 21.315 8.70103L12.972 11.982C12.8773 12.0207 12.7965 12.087 12.7399 12.1722C12.6834 12.2575 12.6538 12.3578 12.655 12.46V19.989C12.6565 20.0709 12.6773 20.1512 12.7157 20.2235C12.7541 20.2958 12.809 20.358 12.876 20.405C12.9432 20.4505 13.0205 20.4789 13.1012 20.4877C13.1819 20.4966 13.2635 20.4857 13.339 20.456L21.683 17.164C21.7774 17.1284 21.8585 17.0646 21.9152 16.9812C21.9719 16.8978 22.0016 16.7989 22 16.698V9.16803C22.0003 9.10168 21.9873 9.03595 21.9619 8.97466C21.9365 8.91336 21.8991 8.85774 21.852 8.81103C21.7589 8.71707 21.6323 8.66386 21.5 8.66303ZM2.563 8.69603C2.48884 8.69321 2.41491 8.706 2.34601 8.73356C2.2771 8.76112 2.21476 8.80285 2.163 8.85603C2.06544 8.94472 2.00685 9.06836 2 9.20003V16.271C2 16.645 2.43 16.895 2.757 16.728L10.712 12.844C11.1 12.658 11.07 12.076 10.661 11.92L2.736 8.73203C2.68093 8.70986 2.62235 8.69767 2.563 8.69603Z" fill="black"/>
</svg>
