<svg width="24" height="24" viewBox="0 0 24 24" fill="none" xmlns="http://www.w3.org/2000/svg">
<path d="M24 14.86C24 17.033 22.624 18.834 20.41 19.56L20.31 19.591V17.99C21.688 17.41 22.497 16.263 22.497 14.86C22.4933 13.8986 22.1138 12.9767 21.4397 12.2912C20.7656 11.6056 19.8502 11.2108 18.889 11.191H18.293L18.149 10.622C17.8077 9.21268 17.005 7.95796 15.8685 7.05739C14.732 6.15682 13.327 5.66213 11.877 5.652C10.6602 5.64617 9.46703 5.98788 8.4378 6.63695C7.40857 7.28602 6.58606 8.21547 6.06698 9.316L5.88298 9.692L5.46598 9.736C4.79207 9.80803 4.14368 10.0337 3.5707 10.3957C2.99772 10.7577 2.51544 11.2463 2.16098 11.824C1.85632 12.3199 1.65237 12.8709 1.56076 13.4457C1.46915 14.0204 1.49169 14.6076 1.62709 15.1736C1.76249 15.7396 2.0081 16.2734 2.34988 16.7445C2.69165 17.2156 3.1229 17.6147 3.61898 17.919V19.609H3.60898L3.45998 19.541C2.5898 19.141 1.82925 18.5365 1.24316 17.7791C0.657059 17.0216 0.262798 16.1337 0.0939783 15.191C-0.0435159 14.4232 -0.0284265 13.6358 0.138385 12.8738C0.305196 12.1117 0.620462 11.3901 1.06618 10.7499C1.5119 10.1097 2.07935 9.56361 2.73613 9.14275C3.3929 8.72188 4.12614 8.43449 4.89398 8.297C5.57137 7.03637 6.57928 5.98401 7.80953 5.25287C9.03977 4.52174 10.4459 4.13943 11.877 4.147C13.5697 4.15966 15.2152 4.70695 16.5783 5.7107C17.9414 6.71444 18.9524 8.12329 19.467 9.736C20.7137 9.89934 21.8592 10.508 22.6923 11.4497C23.5254 12.3915 23.9899 13.6027 24 14.86ZM8.68198 13.538H9.24698C9.25964 13.5376 9.27191 13.5335 9.28232 13.5263C9.29274 13.5191 9.30085 13.509 9.30571 13.4973C9.31056 13.4856 9.31193 13.4727 9.30968 13.4603C9.30742 13.4478 9.30162 13.4363 9.29298 13.427L7.08398 11.216C7.07162 11.2037 7.0549 11.1968 7.03748 11.1968C7.02006 11.1968 7.00334 11.2037 6.99098 11.216L4.77998 13.426C4.7709 13.4353 4.76478 13.4472 4.76241 13.46C4.76003 13.4728 4.76151 13.486 4.76664 13.498C4.77177 13.51 4.78034 13.5202 4.79125 13.5273C4.80217 13.5344 4.81495 13.5381 4.82798 13.538H5.38398C5.40131 13.538 5.41795 13.5448 5.4303 13.557C5.44265 13.5691 5.44972 13.5857 5.44998 13.603V18.661C5.44998 19.32 5.98398 19.854 6.64298 19.854H9.24698C9.25984 19.8537 9.27234 19.8497 9.28296 19.8425C9.29357 19.8352 9.30183 19.825 9.30671 19.8131C9.3116 19.8012 9.3129 19.7881 9.31046 19.7755C9.30802 19.7629 9.30195 19.7512 9.29298 19.742L8.96298 19.412C8.74153 19.1887 8.61657 18.8875 8.61498 18.573V13.603C8.61619 13.5858 8.6237 13.5697 8.63606 13.5577C8.64842 13.5457 8.66477 13.5387 8.68198 13.538ZM18.452 16.084H19.018C19.031 16.0839 19.0438 16.08 19.0546 16.0727C19.0654 16.0654 19.0738 16.055 19.0788 16.0429C19.0837 16.0308 19.0849 16.0175 19.0823 16.0047C19.0797 15.9919 19.0733 15.9802 19.064 15.971L16.854 13.762L16.852 13.761C16.8399 13.7493 16.8236 13.7428 16.8068 13.743C16.7899 13.7432 16.7738 13.75 16.762 13.762L14.551 15.971C14.5417 15.9802 14.5353 15.9919 14.5327 16.0047C14.53 16.0175 14.5313 16.0308 14.5362 16.0429C14.5411 16.055 14.5495 16.0654 14.5603 16.0727C14.5712 16.08 14.5839 16.0839 14.597 16.084H15.153C15.1705 16.084 15.1873 16.091 15.1996 16.1033C15.212 16.1157 15.219 16.1325 15.219 16.15V18.66C15.219 19.32 15.753 19.853 16.412 19.853H19.018C19.0304 19.8524 19.0425 19.8483 19.0527 19.8411C19.0629 19.834 19.0709 19.8241 19.0757 19.8125C19.0806 19.801 19.082 19.7884 19.0799 19.7761C19.0778 19.7638 19.0723 19.7523 19.064 19.743L18.734 19.413C18.5123 19.1895 18.3873 18.8878 18.386 18.573V16.15C18.386 16.1325 18.3929 16.1157 18.4053 16.1033C18.4177 16.091 18.4345 16.084 18.452 16.084ZM13.567 14.81H14.132C14.1447 14.8098 14.1571 14.8058 14.1677 14.7987C14.1782 14.7915 14.1865 14.7815 14.1915 14.7697C14.1965 14.758 14.1979 14.7451 14.1957 14.7325C14.1935 14.72 14.1877 14.7083 14.179 14.699L11.969 12.496C11.9566 12.4837 11.9389 12.4768 11.9215 12.4768C11.9041 12.4768 11.8873 12.4837 11.875 12.496L9.66698 14.703C9.65838 14.7122 9.65259 14.7237 9.65029 14.736C9.648 14.7484 9.64929 14.7612 9.65402 14.7729C9.65875 14.7845 9.66672 14.7946 9.67699 14.8019C9.68726 14.8092 9.6994 14.8134 9.71198 14.814H10.275C10.2925 14.815 10.309 14.8225 10.3212 14.8351C10.3335 14.8477 10.3405 14.8645 10.341 14.882V18.661C10.341 19.32 10.875 19.854 11.533 19.854H14.132C14.1449 19.8539 14.1576 19.8501 14.1683 19.8429C14.1791 19.8357 14.1875 19.8255 14.1925 19.8135C14.1975 19.8016 14.1989 19.7885 14.1965 19.7757C14.1941 19.763 14.188 19.7513 14.179 19.742L13.847 19.412C13.6263 19.1884 13.502 18.8872 13.501 18.573V14.878C13.501 14.841 13.531 14.811 13.567 14.81Z" fill="black"/>
</svg>
