<svg width="24" height="24" viewBox="0 0 24 24" fill="none" xmlns="http://www.w3.org/2000/svg">
<path d="M8.8 8.8001H10.6C10.7 8.8001 10.8 8.7001 10.8 8.6001V7.1001C10.8 7.0001 10.7 6.9001 10.6 6.9001H8.8C8.7 6.9001 8.6 7.0001 8.6 7.1001V8.7001C8.6 8.7001 8.7 8.8001 8.8 8.8001ZM11.2 11.1001H13C13.1 11.1001 13.2 11.0001 13.2 10.9001V9.3001C13.2 9.2001 13.1 9.1001 13 9.1001H11.2C11.1 9.1001 11 9.2001 11 9.3001V10.9001C11 11.0001 11.1 11.1001 11.2 11.1001ZM11.2 8.8001H13C13.1 8.8001 13.2 8.7001 13.2 8.6001V7.1001L13 6.9001H11.2C11.1 6.9001 11 7.0001 11 7.1001V8.7001C11 8.7001 11.1 8.8001 11.2 8.8001ZM13.7 11.1001H15.5C15.6 11.1001 15.7 11.0001 15.7 10.9001V9.3001C15.7 9.2001 15.6 9.1001 15.5 9.1001H13.7C13.6 9.1001 13.5 9.2001 13.5 9.3001V10.9001C13.5 11.0001 13.6 11.1001 13.7 11.1001ZM11.2 6.5001H13C13.1 6.5001 13.2 6.4001 13.2 6.3001V4.8001C13.2 4.7001 13.1 4.6001 13 4.6001H11.2C11.1 4.6001 11 4.7001 11 4.8001V6.4001C11 6.5001 11.1 6.5001 11.2 6.5001ZM3.8 11.1001H5.6C5.7 11.1001 5.8 11.0001 5.8 10.9001V9.3001C5.8 9.2001 5.7 9.1001 5.6 9.1001H3.8C3.7 9.1001 3.6 9.2001 3.6 9.3001V10.9001L3.8 11.1001ZM21.8 10.1001C21.3 9.8001 20.7 9.6001 20.2 9.7001C19.9 9.7001 19.6 9.7001 19.4 9.8001C19.2 8.9001 18.7 8.1001 18 7.7001L17.7 7.5001L17.5 7.8001C17.2 8.0001 17 8.4001 16.9 8.9001C16.7 9.7001 16.8 10.5001 17.2 11.1001C16.7 11.3001 16.2 11.4001 15.7 11.5001H2.6C2.3 11.5001 2 11.8001 2 12.1001C2 13.3001 2.2 14.4001 2.6 15.5001C3 16.6001 3.7 17.5001 4.6 18.1001C6 18.8001 7.5 19.1001 9 19.0001C9.8 19.0001 10.6 18.9001 11.4 18.8001C12.5 18.6001 13.6 18.2001 14.6 17.6001C15.4 17.1001 16.1 16.5001 16.8 15.8001C17.7 14.7001 18.4 13.5001 18.9 12.1001H19.1C19.9 12.1001 20.7 11.8001 21.3 11.3001C21.6 11.1001 21.8 10.8001 21.9 10.4001L22 10.2001L21.8 10.1001ZM6.3 11.1001H8C8.1 11.1001 8.2 11.0001 8.2 10.9001V9.3001C8.2 9.2001 8.1 9.1001 8 9.1001H6.3C6.2 9.1001 6.1 9.2001 6.1 9.3001V10.9001C6.1 11.0001 6.2 11.1001 6.3 11.1001ZM6.3 8.8001H8C8.1 8.8001 8.2 8.7001 8.2 8.6001V7.1001C8.2 7.0001 8.1 6.9001 8 6.9001H6.3C6.2 6.9001 6.1 7.0001 6.1 7.1001V8.7001C6.1 8.7001 6.2 8.8001 6.3 8.8001ZM8.8 11.1001H10.6C10.7 11.1001 10.8 11.0001 10.8 10.9001V9.3001C10.8 9.2001 10.7 9.1001 10.6 9.1001H8.8C8.7 9.1001 8.6 9.2001 8.6 9.3001V10.9001C8.6 11.0001 8.7 11.1001 8.8 11.1001Z" fill="black"/>
</svg>
