<svg width="16" height="16" viewBox="0 0 16 16" fill="none" xmlns="http://www.w3.org/2000/svg">
<path d="M1.9895 10.0295L5.626 3.1L9.2035 1.1825L10.2675 1.7195L6.7115 3.7285L10.3855 14.7725L9.2035 14.085L6.4535 7.7465L2.8435 10.486L1.9895 10.0295Z" fill="white"/>
<path d="M12.6201 8.23506C13.3618 8.23506 13.9631 7.67474 13.9631 6.98356C13.9631 6.29237 13.3618 5.73206 12.6201 5.73206C11.8784 5.73206 11.2771 6.29237 11.2771 6.98356C11.2771 7.67474 11.8784 8.23506 12.6201 8.23506Z" fill="white"/>
<path d="M13.6001 6.42504C13.4793 6.25357 13.3162 6.11626 13.1267 6.02644C12.9372 5.93663 12.7276 5.89736 12.5185 5.91246C12.3093 5.92755 12.1075 5.9965 11.9329 6.1126C11.7582 6.2287 11.6165 6.38801 11.5216 6.57504C11.4284 6.77634 11.3985 7.00121 11.4359 7.21987C11.4733 7.43854 11.5763 7.64068 11.7311 7.79954C12.1558 7.83341 12.5786 7.71311 12.9218 7.46068C13.2651 7.20824 13.5059 6.84057 13.6001 6.42504ZM9.9881 1.70004L9.21461 1.27554L5.84661 3.15004L6.11511 3.29504L6.62561 3.56354L7.55011 3.05004L9.9886 1.69104L9.9881 1.70004ZM10.2996 1.57104C10.3197 1.57593 10.3381 1.58591 10.3532 1.60001C10.3682 1.61411 10.3794 1.63186 10.3856 1.65154L11.5136 4.98004C11.5252 5.00644 11.526 5.03628 11.5161 5.06331C11.5061 5.09034 11.486 5.11247 11.4601 5.12504C11.0295 5.36116 10.6912 5.73576 10.5001 6.18815C10.309 6.64054 10.2762 7.1442 10.4071 7.61754C10.5633 8.13256 10.8948 8.5767 11.3441 8.87295C11.7934 9.1692 12.3322 9.29889 12.8671 9.23954C12.8965 9.23767 12.9257 9.24493 12.9507 9.26033C12.9758 9.27573 12.9955 9.29851 13.0071 9.32554L14.1726 12.742C14.1799 12.7696 14.1787 12.7987 14.169 12.8255C14.1594 12.8523 14.1418 12.8755 14.1186 12.892L10.5361 14.9865C10.5189 14.9935 10.5006 14.9972 10.4821 14.9975C10.4491 15.0031 10.4151 14.9975 10.3856 14.9815L9.12861 14.1915C9.10567 14.1797 9.08698 14.161 9.07511 14.138L6.62011 8.49304L2.88161 10.62C2.85924 10.6313 2.83472 10.6376 2.8097 10.6385C2.78469 10.6395 2.75976 10.635 2.73661 10.6255L1.88661 10.142C1.85881 10.1271 1.83778 10.1021 1.82783 10.0722C1.81789 10.0422 1.81977 10.0096 1.83311 9.98104L5.46511 3.08904C5.47869 3.06547 5.49933 3.04676 5.52411 3.03554L9.14461 1.01604C9.1644 1.00527 9.18657 0.999634 9.20911 0.999634C9.23164 0.999634 9.25381 1.00527 9.27361 1.01604L10.2996 1.57104ZM5.80911 3.42204L5.63161 3.33104L2.13161 9.99704L2.77061 10.357L5.78961 6.40704C5.80455 6.38903 5.8235 6.37476 5.84495 6.36539C5.86639 6.35601 5.88973 6.35178 5.91311 6.35304C5.93605 6.35718 5.95771 6.36661 5.97637 6.38059C5.99503 6.39456 6.01017 6.41269 6.02061 6.43354L9.3081 14.0075L10.1866 14.55L6.65761 4.23354L6.50761 3.80354L5.80411 3.41704L5.80911 3.42204ZM11.2236 7.39704C11.1435 7.09974 11.1662 6.78409 11.2881 6.50134C11.41 6.21859 11.6239 5.98536 11.8951 5.83954C12.1704 5.68558 12.4875 5.62341 12.8006 5.66208C13.1136 5.70074 13.4061 5.83822 13.6356 6.05454C13.8953 6.30431 14.0453 6.64695 14.0526 7.00722C14.06 7.36749 13.924 7.71593 13.6746 7.97604L13.6356 8.01504C13.4556 8.18739 13.2346 8.31101 12.9936 8.37422C12.7525 8.43743 12.4993 8.43814 12.2579 8.37628C12.0165 8.31443 11.7948 8.19205 11.6138 8.02071C11.4329 7.84937 11.2986 7.63472 11.2236 7.39704Z" fill="black"/>
</svg>
