<svg width="15" height="15" viewBox="0 0 15 15" fill="none" xmlns="http://www.w3.org/2000/svg">
<g clip-path="url(#clip0_200_54)">
<path d="M6.44023 0.853963C6.72148 0.573062 7.10273 0.415283 7.50023 0.415283C7.89773 0.415283 8.27898 0.573062 8.56023 0.853963L14.1462 6.43896C14.2856 6.57826 14.3962 6.74366 14.4716 6.92572C14.5471 7.10777 14.5859 7.3029 14.5859 7.49996C14.5859 7.69703 14.5471 7.89216 14.4716 8.07421C14.3962 8.25626 14.2856 8.42166 14.1462 8.56096L8.56123 14.146C8.42193 14.2854 8.25653 14.3959 8.07448 14.4714C7.89243 14.5468 7.69729 14.5856 7.50023 14.5856C7.30317 14.5856 7.10803 14.5468 6.92598 14.4714C6.74393 14.3959 6.57853 14.2854 6.43923 14.146L0.854231 8.56096C0.714841 8.42166 0.604266 8.25626 0.528823 8.07421C0.453381 7.89216 0.414551 7.69703 0.414551 7.49996C0.414551 7.3029 0.453381 7.10777 0.528823 6.92572C0.604266 6.74366 0.714841 6.57826 0.854231 6.43896L4.79323 2.49996L6.14623 3.85296C6.05554 4.04281 6.00579 4.24961 6.00023 4.45993C5.99467 4.67026 6.03342 4.8794 6.11396 5.07377C6.1945 5.26814 6.31503 5.44339 6.46772 5.58814C6.62041 5.73289 6.80184 5.8439 7.00023 5.91396V9.08496C6.66662 9.20291 6.38545 9.435 6.20642 9.7402C6.02738 10.0454 5.962 10.4041 6.02183 10.7528C6.08167 11.1016 6.26287 11.4179 6.5334 11.646C6.80393 11.8741 7.14639 11.9992 7.50023 11.9992C7.85407 11.9992 8.19653 11.8741 8.46706 11.646C8.7376 11.4179 8.91879 11.1016 8.97863 10.7528C9.03846 10.4041 8.97309 10.0454 8.79405 9.7402C8.61501 9.435 8.33384 9.20291 8.00023 9.08496V5.91496C8.0509 5.89696 8.0999 5.87663 8.14723 5.85396L9.14723 6.85396C8.99472 7.17326 8.95999 7.53619 9.04919 7.87861C9.13839 8.22104 9.34578 8.5209 9.63469 8.7252C9.9236 8.92951 10.2754 9.0251 10.628 8.99507C10.9806 8.96505 11.3112 8.81135 11.5614 8.56114C11.8116 8.31093 11.9653 7.98032 11.9953 7.62775C12.0254 7.27517 11.9298 6.92334 11.7255 6.63442C11.5212 6.34551 11.2213 6.13813 10.8789 6.04893C10.5365 5.95972 10.1735 5.99445 9.85423 6.14696L8.85423 5.14696C8.98791 4.86706 9.03153 4.55259 8.97908 4.24686C8.92662 3.94114 8.78068 3.6592 8.56134 3.43986C8.342 3.22052 8.06005 3.07457 7.75433 3.02212C7.44861 2.96966 7.13414 3.01328 6.85423 3.14696L5.50023 1.79196L6.44023 0.853963Z" fill="black"/>
</g>
<defs>
<clipPath id="clip0_200_54">
<rect width="15" height="15" fill="white"/>
</clipPath>
</defs>
</svg>
