<svg width="16" height="16" viewBox="0 0 16 16" fill="none" xmlns="http://www.w3.org/2000/svg">
<g clip-path="url(#clip0_200_85)">
<path d="M0.5 0.5V15.5H15.5V0.5H0.5ZM8.663 12.199C8.663 13.659 7.807 14.323 6.558 14.323C5.431 14.323 4.7765 13.739 4.444 13.035L5.592 12.34C5.8135 12.728 6.015 13.06 6.498 13.06C6.961 13.06 7.253 12.8835 7.253 12.175V7.385H8.663V12.199ZM11.996 14.323C10.687 14.323 9.841 13.699 9.4285 12.883L10.576 12.2195C10.878 12.7085 11.271 13.0745 11.966 13.0745C12.5495 13.0745 12.9175 12.7825 12.9175 12.3765C12.9175 11.8935 12.5345 11.7215 11.8905 11.444L11.5405 11.289C10.5235 10.8565 9.849 10.3125 9.849 9.164C9.849 8.1075 10.651 7.3015 11.913 7.3015C12.809 7.3015 13.453 7.614 13.917 8.4285L12.822 9.131C12.582 8.701 12.319 8.526 11.916 8.526C11.504 8.526 11.24 8.787 11.24 9.131C11.24 9.557 11.5 9.725 12.105 9.986L12.4565 10.141C13.655 10.651 14.33 11.176 14.33 12.356C14.3335 13.628 13.337 14.321 11.9975 14.321L11.996 14.323Z" fill="black"/>
</g>
<defs>
<clipPath id="clip0_200_85">
<rect width="16" height="16" fill="white"/>
</clipPath>
</defs>
</svg>
