<svg width="24" height="24" viewBox="0 0 24 24" fill="none" xmlns="http://www.w3.org/2000/svg">
<path fill-rule="evenodd" clip-rule="evenodd" d="M10.0001 2C10.7006 1.9997 11.3889 2.18336 11.9961 2.53259C12.6033 2.88182 13.1081 3.38439 13.4601 3.99L13.5581 4.172L14.1961 3.804C14.9571 3.3644 15.8418 3.18767 16.7133 3.30114C17.5848 3.4146 18.3947 3.81193 19.0178 4.43173C19.6409 5.05154 20.0425 5.8593 20.1606 6.7302C20.2787 7.6011 20.1067 8.48665 19.6711 9.25L19.5581 9.436L20.1961 9.804C20.9571 10.2434 21.5522 10.9211 21.8896 11.7325C22.2269 12.5439 22.2876 13.4438 22.0624 14.2932C21.8372 15.1426 21.3386 15.8942 20.6436 16.4318C19.9486 16.9695 19.0958 17.2634 18.2171 17.268L18.0001 17.264V18C18.0004 18.8798 17.7106 19.7351 17.1756 20.4335C16.6407 21.1319 15.8904 21.6345 15.0409 21.8634C14.1914 22.0923 13.2902 22.0348 12.4767 21.6997C11.6633 21.3647 10.9829 20.7708 10.5411 20.01L10.4411 19.828L9.80412 20.196C9.04309 20.6356 8.15847 20.8123 7.28696 20.6989C6.41544 20.5854 5.60556 20.1881 4.98245 19.5683C4.35935 18.9485 3.95772 18.1407 3.83963 17.2698C3.72154 16.3989 3.89357 15.5134 4.32912 14.75L4.44212 14.564L3.80412 14.196C3.04313 13.7566 2.448 13.0789 2.11068 12.2675C1.77335 11.4561 1.71259 10.5562 1.93779 9.70681C2.163 8.85743 2.66163 8.10585 3.35665 7.56817C4.05167 7.03049 4.90441 6.73663 5.78312 6.732L6.00012 6.736V6C6.00012 4.93913 6.42155 3.92172 7.17169 3.17157C7.92184 2.42143 8.93926 2 10.0001 2ZM14.7021 12.788L14.6341 16.847C14.6317 16.9976 14.5952 17.1457 14.5275 17.2802C14.4598 17.4148 14.3626 17.5323 14.2431 17.624L14.1341 17.696L12.1781 18.826C12.3625 19.2296 12.6757 19.5605 13.0686 19.7668C13.4615 19.973 13.9118 20.0429 14.3487 19.9654C14.7857 19.8879 15.1845 19.6674 15.4825 19.3387C15.7805 19.0099 15.9608 18.5914 15.9951 18.149L16.0001 18V13.566L14.7021 12.787V12.788ZM12.6691 14.734L9.11912 16.704C8.96821 16.7878 8.79818 16.8311 8.62557 16.8297C8.45296 16.8283 8.28365 16.7822 8.13412 16.696L6.17812 15.566C5.91238 15.9377 5.78185 16.3891 5.80822 16.8453C5.8346 17.3014 6.01629 17.7348 6.32309 18.0734C6.6299 18.412 7.04334 18.6354 7.49469 18.7064C7.94605 18.7775 8.40812 18.6919 8.80412 18.464L12.6441 16.247L12.6691 14.734ZM15.3561 9.319L14.0331 10.054L17.5151 12.143C17.663 12.2319 17.7854 12.3575 17.8704 12.5077C17.9554 12.6578 18.0001 12.8274 18.0001 13V15.259C18.4543 15.3019 18.9095 15.1884 19.2904 14.9373C19.6712 14.6862 19.9549 14.3125 20.0944 13.8782C20.234 13.4439 20.221 12.9749 20.0576 12.549C19.8942 12.123 19.5903 11.7656 19.1961 11.536L15.3561 9.319ZM6.00012 8.74C5.55867 8.69708 5.11547 8.80205 4.74016 9.03841C4.36485 9.27477 4.07871 9.62912 3.9267 10.0458C3.77468 10.4625 3.76541 10.9178 3.90034 11.3403C4.03527 11.7629 4.30675 12.1286 4.67212 12.38L4.80412 12.463L8.64412 14.68L9.96712 13.945L6.48512 11.857C6.35589 11.7794 6.24587 11.6737 6.16327 11.5476C6.08067 11.4216 6.02763 11.2784 6.00812 11.129L6.00012 11V8.74ZM10.0001 4C9.46969 4 8.96098 4.21071 8.58591 4.58579C8.21083 4.96086 8.00012 5.46957 8.00012 6V10.434L9.29812 11.213L9.36612 7.153C9.3689 6.98019 9.41643 6.81105 9.50406 6.66208C9.59169 6.51311 9.71643 6.38939 9.86612 6.303L11.8221 5.174C11.6634 4.82391 11.4071 4.52699 11.0839 4.31878C10.7608 4.11057 10.3845 3.9999 10.0001 4ZM17.9281 6.268C17.6764 5.83196 17.2696 5.50687 16.7887 5.35765C16.3079 5.20843 15.7884 5.24605 15.3341 5.463L15.1961 5.536L11.3561 7.753L11.3311 9.266L14.8811 7.296C15.0127 7.22287 15.1591 7.18039 15.3094 7.17173C15.4597 7.16307 15.61 7.18846 15.7491 7.246L15.8661 7.304L17.8231 8.434C18.2651 7.814 18.3331 6.969 17.9281 6.268Z" fill="black"/>
</svg>
