<svg width="24" height="24" viewBox="0 0 24 24" fill="none" xmlns="http://www.w3.org/2000/svg">
<g clip-path="url(#clip0_200_50)">
<path d="M7.6999 0C5.0329 0 4.0659 0.278 3.0899 0.8C2.12434 1.3124 1.33517 2.10331 0.824902 3.07C0.302902 4.047 0.0249023 5.017 0.0249023 7.692V8.69C0.0249023 8.889 0.102902 9.078 0.242902 9.219L2.0129 10.993C2.03383 11.0143 2.06063 11.0289 2.08988 11.0348C2.11913 11.0408 2.1495 11.0379 2.1771 11.0265C2.2047 11.0152 2.22827 10.9958 2.24481 10.9709C2.26134 10.9461 2.27008 10.9169 2.2699 10.887V8.019C2.2699 6.013 2.4779 5.286 2.8699 4.552C3.25311 3.82774 3.84454 3.23491 4.5679 2.85C5.2989 2.458 6.0249 2.25 8.0269 2.25H10.1909C10.3899 2.25 10.5809 2.17 10.7209 2.029L12.4909 0.257C12.5121 0.236197 12.5266 0.209578 12.5326 0.180513C12.5387 0.151449 12.536 0.121246 12.5248 0.093728C12.5137 0.0662103 12.4946 0.0426155 12.4701 0.0259308C12.4455 0.00924598 12.4166 0.000221549 12.3869 0L7.6999 0ZM15.3049 0C15.1049 0 14.9129 0.08 14.7729 0.22L13.0039 1.995C12.9762 2.02261 12.9605 2.05993 12.9599 2.099C12.9599 2.182 13.0279 2.249 13.1099 2.249H15.9719C17.9739 2.249 18.6999 2.459 19.4319 2.85C20.1553 3.23491 20.7467 3.82774 21.1299 4.552C21.5199 5.286 21.7289 6.013 21.7289 8.019V10.189C21.7289 10.387 21.8069 10.579 21.9469 10.719L23.7169 12.493C23.7378 12.5143 23.7646 12.5289 23.7939 12.5348C23.8231 12.5408 23.8535 12.5379 23.8811 12.5265C23.9087 12.5152 23.9323 12.4958 23.9488 12.4709C23.9653 12.4461 23.9741 12.4169 23.9739 12.387V7.692C23.9739 5.017 23.6959 4.047 23.1739 3.069C22.6636 2.1032 21.8748 1.31303 20.9099 0.801C19.9349 0.278 18.9679 0 16.2999 0H15.3049ZM6.7609 3.75C6.36742 3.75026 5.97786 3.82806 5.61446 3.97894C5.25106 4.12982 4.92095 4.35083 4.643 4.62934C4.36504 4.90785 4.1447 5.23839 3.99454 5.6021C3.84439 5.9658 3.76738 6.35552 3.7679 6.749V12.44C3.76808 12.6384 3.84682 12.8286 3.9869 12.969L5.7569 14.745C5.77774 14.7661 5.80441 14.7805 5.83348 14.7864C5.86255 14.7922 5.89271 14.7893 5.9201 14.7779C5.94749 14.7665 5.97085 14.7472 5.98721 14.7225C6.00356 14.6977 6.01216 14.6687 6.0119 14.639V7.499C6.01198 7.31793 6.04484 7.13836 6.1089 6.969C6.1809 6.769 6.2969 6.584 6.4569 6.424L8.7649 4.003C8.78508 3.98164 8.79854 3.95482 8.80361 3.92588C8.80868 3.89693 8.80514 3.86714 8.79342 3.84019C8.7817 3.81324 8.76233 3.79033 8.7377 3.77429C8.71308 3.75826 8.68429 3.74981 8.6549 3.75H6.7609ZM11.5629 3.75C11.3629 3.75 11.1729 3.83 11.0329 3.97L9.2599 5.744C9.23943 5.76516 9.22558 5.79184 9.22007 5.82076C9.21456 5.84968 9.21762 5.87958 9.22889 5.90679C9.24015 5.93399 9.25912 5.95731 9.28347 5.97387C9.30781 5.99043 9.33646 5.99951 9.3659 6H16.4899C16.6766 6.00067 16.8526 6.033 17.0179 6.097C17.2179 6.169 17.4039 6.285 17.5639 6.444L19.9769 8.757C19.9981 8.77773 20.0249 8.79174 20.054 8.79725C20.0831 8.80277 20.1131 8.79955 20.1404 8.788C20.1677 8.77645 20.1909 8.75709 20.2072 8.73235C20.2235 8.70762 20.2321 8.67861 20.2319 8.649V6.749C20.2326 6.35544 20.1556 5.96561 20.0056 5.60179C19.8555 5.23797 19.6351 4.9073 19.3572 4.62869C19.0792 4.35007 18.749 4.12898 18.3856 3.97803C18.0221 3.82709 17.6325 3.74926 17.2389 3.749L11.5629 3.75ZM18.1359 9.213C18.0961 9.213 18.058 9.2288 18.0298 9.25693C18.0017 9.28506 17.9859 9.32322 17.9859 9.363V16.502C17.9865 16.683 17.9543 16.8625 17.8909 17.032C17.816 17.2372 17.6973 17.4235 17.5429 17.578L15.2349 19.998C15.2142 20.0191 15.2002 20.046 15.1946 20.0751C15.1891 20.1042 15.1923 20.1342 15.2039 20.1615C15.2154 20.1888 15.2348 20.212 15.2595 20.2283C15.2843 20.2446 15.3133 20.2532 15.3429 20.253H17.2389C17.6326 20.2525 18.0223 20.1744 18.3857 20.0232C18.7492 19.8721 19.0793 19.6508 19.3573 19.372C19.6352 19.0932 19.8555 18.7624 20.0056 18.3985C20.1557 18.0346 20.2326 17.6447 20.2319 17.251V11.561C20.232 11.3623 20.1532 11.1717 20.0129 11.031L18.2429 9.257C18.2289 9.24295 18.2122 9.23182 18.1938 9.22427C18.1754 9.21672 18.1558 9.21289 18.1359 9.213ZM0.175902 11.463C0.13612 11.463 0.0979668 11.4788 0.0698363 11.5069C0.0417059 11.5351 0.0259023 11.5732 0.0259023 11.613V16.308C0.0259023 18.982 0.303902 19.953 0.825902 20.931C1.33562 21.8967 2.12415 22.6866 3.0889 23.198C4.0649 23.72 5.0319 24 7.7009 24H8.6949C8.8949 24 9.0849 23.92 9.2249 23.78L10.9959 22.005C11.017 21.9842 11.0314 21.9575 11.0373 21.9284C11.0431 21.8993 11.0402 21.8692 11.0288 21.8418C11.0174 21.8144 10.9981 21.7911 10.9734 21.7747C10.9486 21.7583 10.9196 21.7497 10.8899 21.75H8.0269C6.0249 21.75 5.2989 21.542 4.5669 21.15C3.84354 20.7651 3.25211 20.1723 2.8689 19.448C2.4789 18.714 2.2699 17.987 2.2699 15.981V13.809C2.2692 13.6108 2.19011 13.421 2.0499 13.281L0.281902 11.507C0.253799 11.4789 0.215671 11.463 0.175902 11.463ZM21.8789 12.963C21.8391 12.963 21.801 12.9788 21.7728 13.0069C21.7447 13.0351 21.7289 13.0732 21.7289 13.113V15.981C21.7289 17.987 21.5209 18.714 21.1289 19.448C20.7457 20.1723 20.1543 20.7651 19.4309 21.15C18.6999 21.542 17.9739 21.75 15.9719 21.75H13.8079C13.7091 21.7498 13.6113 21.7692 13.52 21.8069C13.4287 21.8447 13.3457 21.9001 13.2759 21.97L11.5069 23.743C11.493 23.7571 11.4821 23.7738 11.4747 23.7922C11.4673 23.8106 11.4637 23.8302 11.4639 23.85C11.4639 23.933 11.5289 24 11.6119 24H16.2999C18.9699 24 19.9359 23.72 20.9119 23.198C21.8767 22.6866 22.6652 21.8967 23.1749 20.931C23.6969 19.953 23.9749 18.983 23.9749 16.308V15.31C23.9745 15.1115 23.8953 14.9213 23.7549 14.781L21.9859 13.007C21.9578 12.9789 21.9187 12.963 21.8789 12.963ZM3.9189 15.201C3.89912 15.2009 3.87951 15.2047 3.86119 15.2121C3.84288 15.2196 3.82622 15.2306 3.81219 15.2446C3.79815 15.2585 3.78702 15.2751 3.77942 15.2934C3.77181 15.3116 3.7679 15.3312 3.7679 15.351V17.249C3.76738 17.6426 3.84438 18.0324 3.9945 18.3962C4.14463 18.76 4.36495 19.0907 4.64287 19.3694C4.9208 19.648 5.25089 19.8692 5.6143 20.0203C5.97772 20.1714 6.36733 20.2495 6.7609 20.25H12.4369C12.6369 20.25 12.8269 20.17 12.9669 20.03L14.7399 18.255C14.7676 18.2274 14.7833 18.1901 14.7839 18.151C14.7839 18.1112 14.7681 18.0731 14.74 18.0449C14.7118 18.0168 14.6737 18.001 14.6339 18.001H7.5099C7.32877 18.0006 7.1492 17.9674 6.9799 17.903C6.77483 17.8284 6.5885 17.71 6.4339 17.556L4.0209 15.243C3.99322 15.2163 3.95735 15.2013 3.9189 15.201Z" fill="black"/>
</g>
<defs>
<clipPath id="clip0_200_50">
<rect width="24" height="24" fill="white"/>
</clipPath>
</defs>
</svg>
