<svg width="24" height="24" viewBox="0 0 24 24" fill="none" xmlns="http://www.w3.org/2000/svg">
<path d="M4.0028 15.7279C3.90346 15.5704 3.85008 15.3883 3.84866 15.202C3.84725 15.0158 3.89786 14.8329 3.9948 14.6739L11.4738 2.4749C11.5681 2.32133 11.7024 2.19623 11.8622 2.11295C12.0221 2.02967 12.2015 1.99132 12.3814 2.00199C12.5614 2.01267 12.735 2.07196 12.8839 2.17356C13.0328 2.27516 13.1513 2.41525 13.2268 2.5789L20.0588 17.3989C20.1183 17.5283 20.1494 17.669 20.1499 17.8114C20.1504 17.9539 20.1204 18.0948 20.0618 18.2247C20.0033 18.3545 19.9175 18.4703 19.8104 18.5642C19.7032 18.6581 19.5772 18.7279 19.4408 18.7689L8.8128 21.9589C8.60484 22.0213 8.3822 22.014 8.17875 21.9382C7.9753 21.8624 7.8022 21.7222 7.6858 21.5389L4.0028 15.7279ZM12.3368 6.0419L9.7068 19.1399C9.69413 19.203 9.69799 19.2682 9.71799 19.3294C9.738 19.3905 9.77348 19.4454 9.82098 19.4888C9.86848 19.5322 9.92639 19.5625 9.98909 19.5769C10.0518 19.5913 10.1171 19.5892 10.1788 19.5709L17.5218 17.3789C17.5724 17.3639 17.6192 17.3383 17.6592 17.3038C17.6991 17.2694 17.7313 17.2268 17.7536 17.179C17.776 17.1312 17.7879 17.0792 17.7886 17.0264C17.7893 16.9736 17.7788 16.9213 17.7578 16.8729L13.0458 5.9679C13.0148 5.89416 12.9608 5.83235 12.8919 5.79161C12.8231 5.75088 12.7429 5.73336 12.6634 5.74165C12.5838 5.74995 12.509 5.78361 12.45 5.83768C12.391 5.89174 12.352 5.96334 12.3368 6.0419Z" fill="black"/>
</svg>
