<svg width="24" height="24" viewBox="0 0 24 24" fill="none" xmlns="http://www.w3.org/2000/svg">
<path d="M8 12C8 6.477 9.79 2 12 2C14.21 2 16 6.477 16 12C16 17.523 14.21 22 12 22C9.79 22 8 17.523 8 12Z" stroke="black" stroke-width="1.5"/>
<path d="M9.9752 8.62003C14.8172 5.85803 19.6492 5.17003 20.7672 7.08303C21.8852 8.99603 18.8672 12.786 14.0252 15.547C9.1832 18.308 4.3512 18.997 3.2332 17.083C2.1152 15.17 5.1332 11.382 9.9752 8.62003Z" stroke="black" stroke-width="1.5"/>
<path d="M14.0252 8.62003C18.8672 11.38 21.8852 15.17 20.7672 17.083C19.6492 18.997 14.8172 18.309 9.9752 15.547C5.1332 12.785 2.1152 8.99703 3.2332 7.08303C4.3502 5.17003 9.1832 5.85803 14.0252 8.62003Z" stroke="black" stroke-width="1.5"/>
<path d="M13.5 12C13.5 12.3978 13.342 12.7794 13.0607 13.0607C12.7794 13.342 12.3978 13.5 12 13.5C11.6022 13.5 11.2206 13.342 10.9393 13.0607C10.658 12.7794 10.5 12.3978 10.5 12C10.5 11.6022 10.658 11.2206 10.9393 10.9393C11.2206 10.658 11.6022 10.5 12 10.5C12.3978 10.5 12.7794 10.658 13.0607 10.9393C13.342 11.2206 13.5 11.6022 13.5 12Z" stroke="black" stroke-width="1.5"/>
</svg>
