<svg width="24" height="24" viewBox="0 0 24 24" fill="none" xmlns="http://www.w3.org/2000/svg">
<path d="M11.667 6C9.17767 6 7.622 7.22233 7 9.667C7.93333 8.44433 9.02233 7.986 10.267 8.292C10.977 8.466 11.484 8.972 12.045 9.532C12.961 10.444 14.045 11.5 16.333 11.5C18.8223 11.5 20.378 10.2777 21 7.833C20.0667 9.05567 18.9777 9.514 17.733 9.208C17.023 9.034 16.516 8.528 15.955 7.968C15.039 7.056 13.98 6 11.667 6ZM7.667 12.5C5.17767 12.5 3.622 13.7223 3 16.167C3.93333 14.9443 5.02233 14.486 6.267 14.792C6.977 14.966 7.484 15.472 8.045 16.032C8.961 16.944 10.02 18 12.333 18C14.8223 18 16.378 16.7777 17 14.333C16.0667 15.5557 14.9777 16.014 13.733 15.708C13.023 15.534 12.516 15.028 11.955 14.468C11.039 13.556 9.98 12.5 7.667 12.5Z" stroke="black" stroke-width="2" stroke-linecap="round" stroke-linejoin="round"/>
</svg>
