<svg width="16" height="16" viewBox="0 0 16 16" fill="none" xmlns="http://www.w3.org/2000/svg">
<path d="M13.5306 4.96938L10.0306 1.46938C9.96092 1.39975 9.87818 1.34454 9.78714 1.3069C9.69609 1.26926 9.59852 1.24992 9.5 1.25H3.5C3.16848 1.25 2.85054 1.3817 2.61612 1.61612C2.3817 1.85054 2.25 2.16848 2.25 2.5V6.75C2.25 6.94891 2.32902 7.13968 2.46967 7.28033C2.61032 7.42098 2.80109 7.5 3 7.5C3.19891 7.5 3.38968 7.42098 3.53033 7.28033C3.67098 7.13968 3.75 6.94891 3.75 6.75V2.75H8.5V5.75C8.5 5.94891 8.57902 6.13968 8.71967 6.28033C8.86032 6.42098 9.05109 6.5 9.25 6.5H12.25V13.25H11.25C11.0511 13.25 10.8603 13.329 10.7197 13.4697C10.579 13.6103 10.5 13.8011 10.5 14C10.5 14.1989 10.579 14.3897 10.7197 14.5303C10.8603 14.671 11.0511 14.75 11.25 14.75H12.5C12.8315 14.75 13.1495 14.6183 13.3839 14.3839C13.6183 14.1495 13.75 13.8315 13.75 13.5V5.5C13.7501 5.40148 13.7307 5.30391 13.6931 5.21286C13.6555 5.12182 13.6003 5.03908 13.5306 4.96938ZM10 3.5625L11.4375 5H10V3.5625ZM9.73625 12.3031C9.7125 12.5301 9.63883 12.749 9.52051 12.9442C9.40219 13.1393 9.24215 13.3059 9.05188 13.4319C8.67688 13.6819 8.2225 13.7537 7.81875 13.7537C7.47609 13.7515 7.13516 13.7051 6.80438 13.6156C6.61276 13.5621 6.45025 13.4346 6.35262 13.2613C6.25498 13.0879 6.23021 12.8829 6.28375 12.6912C6.33729 12.4996 6.46476 12.3371 6.63811 12.2395C6.81147 12.1419 7.01651 12.1171 7.20813 12.1706C7.63375 12.2869 8.14563 12.2712 8.2325 12.1744C8.23905 12.1603 8.24348 12.1454 8.24562 12.13C8.12437 12.0531 7.81875 11.965 7.62813 11.91C7.29125 11.8125 6.94063 11.7112 6.64375 11.5181C6.1675 11.2106 5.94313 10.74 6.01188 10.1931C6.03522 9.97057 6.10716 9.75586 6.22261 9.56416C6.33806 9.37247 6.4942 9.20847 6.68 9.08375C7.05875 8.82812 7.56562 8.71938 8.18625 8.76C8.43958 8.77599 8.69099 8.81447 8.9375 8.875C9.12772 8.92748 9.28959 9.05282 9.38803 9.22384C9.48647 9.39486 9.51354 9.59778 9.46338 9.78862C9.41323 9.97947 9.28988 10.1429 9.12007 10.2434C8.95027 10.3439 8.74769 10.3734 8.55625 10.3256C8.15875 10.2238 7.705 10.2313 7.55188 10.305C7.71375 10.3675 7.87876 10.4215 8.04625 10.4669C8.38875 10.5656 8.77625 10.6775 9.09625 10.8931C9.58312 11.2219 9.8125 11.7219 9.73625 12.3013V12.3031ZM5.75 9.5C5.75 9.69891 5.67098 9.88968 5.53033 10.0303C5.38968 10.171 5.19891 10.25 5 10.25H4.5V13C4.5 13.1989 4.42098 13.3897 4.28033 13.5303C4.13968 13.671 3.94891 13.75 3.75 13.75C3.55109 13.75 3.36032 13.671 3.21967 13.5303C3.07902 13.3897 3 13.1989 3 13V10.25H2.5C2.30109 10.25 2.11032 10.171 1.96967 10.0303C1.82902 9.88968 1.75 9.69891 1.75 9.5C1.75 9.30109 1.82902 9.11032 1.96967 8.96967C2.11032 8.82902 2.30109 8.75 2.5 8.75H5C5.19891 8.75 5.38968 8.82902 5.53033 8.96967C5.67098 9.11032 5.75 9.30109 5.75 9.5Z" fill="black"/>
</svg>
