<svg width="24" height="24" viewBox="0 0 24 24" fill="none" xmlns="http://www.w3.org/2000/svg">
<path d="M22 12C22 17.523 17.523 22 12 22C6.477 22 2 17.523 2 12C2 6.477 6.477 2 12 2C17.523 2 22 6.477 22 12ZM14.606 19.566L12.451 13.581L10.27 19.813C11.7106 20.1305 13.2108 20.045 14.606 19.566ZM17.074 18.186C17.9899 17.4364 18.7277 16.4925 19.2337 15.4226C19.7398 14.3526 20.0015 13.1836 20 12C20.0007 11.0052 19.8159 10.019 19.455 9.092C19.205 10.546 18.763 12.442 18.479 13.407L17.074 18.186ZM16.873 5.655C15.4764 4.57965 13.7627 3.99763 12 4C10.8006 3.99928 9.61651 4.26857 8.53542 4.78791C7.45434 5.30725 6.50404 6.0633 5.755 7H7.145V9H6.395L9.15 16.958L11.377 10.596L10.802 9H8.645V7H13.645V9H12.928L15.549 16.282L16.561 12.842C17.084 11.01 16.653 10.211 16.222 9.413C15.933 8.879 15.645 8.345 15.645 7.5C15.645 7.10566 15.7616 6.72012 15.9801 6.39185C16.1986 6.06357 16.5092 5.80722 16.873 5.655ZM4.425 9.42C4.1428 10.2509 3.99921 11.1225 4 12C3.99991 13.3328 4.33284 14.6446 4.96852 15.816C5.6042 16.9875 6.5225 17.9816 7.64 18.708L4.425 9.42Z" fill="black"/>
</svg>
